<svg width="97" height="87" viewBox="0 0 97 87" fill="none" xmlns="http://www.w3.org/2000/svg">
<g id="Component 2">
<g id="Ellipse 3" filter="url(#filter0_d_1712_585)">
<path d="M93 41.08C93 62.8952 73.0766 79 48.5 79C23.9233 79 4 62.8952 4 41.08C4 19.2648 23.9233 0 48.5 0C73.0766 0 93 19.2648 93 41.08Z" fill="#2D371D"/>
</g>
<path id="Arrow 2" d="M78.0294 44.305C79.5864 42.7377 79.5781 40.2051 78.0108 38.6481L52.4714 13.2761C50.9042 11.7192 48.3716 11.7275 46.8146 13.2947C45.2577 14.8619 45.266 17.3946 46.8332 18.9515L69.5349 41.5044L46.982 64.2061C45.4251 65.7734 45.4334 68.306 47.0006 69.863C48.5678 71.4199 51.1005 71.4116 52.6574 69.8444L78.0294 44.305ZM22.0132 45.6607L75.2049 45.4858L75.1786 37.4859L21.9868 37.6607L22.0132 45.6607Z" fill="white"/>
</g>
<defs>
<filter id="filter0_d_1712_585" x="0" y="0" width="97" height="87" filterUnits="userSpaceOnUse" color-interpolation-filters="sRGB">
<feFlood flood-opacity="0" result="BackgroundImageFix"/>
<feColorMatrix in="SourceAlpha" type="matrix" values="0 0 0 0 0 0 0 0 0 0 0 0 0 0 0 0 0 0 127 0" result="hardAlpha"/>
<feOffset dy="4"/>
<feGaussianBlur stdDeviation="2"/>
<feComposite in2="hardAlpha" operator="out"/>
<feColorMatrix type="matrix" values="0 0 0 0 0 0 0 0 0 0 0 0 0 0 0 0 0 0 0.25 0"/>
<feBlend mode="normal" in2="BackgroundImageFix" result="effect1_dropShadow_1712_585"/>
<feBlend mode="normal" in="SourceGraphic" in2="effect1_dropShadow_1712_585" result="shape"/>
</filter>
</defs>
</svg>
